{"title":"Gomorra S03 E09 - 1080p x265 HEVC - ITA (ENG SUBS) [BRSHNKV]","magnet":"magnet:?xt=urn:btih:d98ae703e46c20b1d5c3c438b315e1235fca84ed&dn=Gomorra+S03+E09+-+1080p+x265+HEVC+-+ITA+%28ENG+SUBS%29+%5BBRSHNKV%5D&tr=udp%3A%2F%2Ftracker.leechers-paradise.org%3A6969&tr=udp%3A%2F%2Fzer0day.ch%3A1337&tr=udp%3A%2F%2Fopen.demonii.com%3A1337&tr=udp%3A%2F%2Ftracker.coppersurfer.tk%3A6969&tr=udp%3A%2F%2Fexodus.desync.com%3A6969","uploader":"BRSHNKV","categoryP":"video","categoryS":"hd___tv_shows","size":"334371241","seeders":"40","leechers":"22","description":"Tech: \r\n\r\nFormat : MPEG-4 \r\nFormat profile : Base Media / Version 2 \r\nCodec ID : mp42 \r\nFile size : 319 MiB \r\nDuration : 41mn 35s \r\nOverall bit rate mode : Variable \r\nOverall bit rate : 1 072 Kbps \r\nMovie name : Gomorra S03 E09 - 1080p x265 HEVC [BRSHNKV] \r\nEncoded date : UTC 2017-12-17 19:52:48 \r\nTagged date : UTC 2017-12-17 19:52:48 \r\nWriting application : HandBrake 20160211184813-ffd8cb1-master 2016021301 \r\n\r\nVideo \r\nID : 1 \r\nFormat : HEVC \r\nFormat/Info : High Efficiency Video Coding \r\nFormat profile : Main <a href=\"/cdn-cgi/l/email-protection\" class=\"__cf_email__\" data-cfemail=\"91a0a1d1dda5\">[email&#xA0;protected]</a>@Main \r\nCodec ID : hev1 \r\nCodec ID/Info : High Efficiency Video Coding \r\nDuration : 41mn 35s \r\nBit rate : 901 Kbps \r\nWidth : 1 920 pixels \r\nHeight : 1 040 pixels \r\nDisplay aspect ratio : 1.85:1 \r\nFrame rate mode : Constant \r\nFrame rate : 25.000 fps \r\nColor space : YUV \r\nChroma subsampling : 4:2:0 \r\nBit depth : 10 bits \r\nBits/(Pixel*Frame) : 0.018 \r\nStream size : 268 MiB (84%) \r\nWriting library : x265 1.9:[Mac OS X][clang 7.0.2][64 bit] 10bit \r\nEncoded date : UTC 2017-12-17 19:52:48 \r\nTagged date : UTC 2017-12-17 19:52:48 \r\nColor range : Limited \r\nColor primaries : BT.709 \r\nTransfer characteristics : BT.709 \r\nMatrix coefficients : BT.709 \r\n\r\nAudio \r\nID : 2 \r\nFormat : AAC \r\nFormat/Info : Advanced Audio Codec \r\nFormat profile : LC \r\nCodec ID : 40 \r\nDuration : 41mn 35s \r\nBit rate mode : Variable \r\nBit rate : 165 Kbps \r\nChannel(s) : 2 channels \r\nChannel positions : Front: L R \r\nSampling rate : 48.0 KHz \r\nCompression mode : Lossy \r\nStream size : 48.9 MiB (15%) \r\nTitle : Stereo / Stereo \r\nLanguage : Italian \r\nEncoded date : UTC 2017-12-17 19:52:48 \r\nTagged date : UTC 2017-12-17 19:52:48 \r\n\r\nBitcoin Donate: 3Qpdm4ckJ64irx1Nuyw9ZCCvc2qxoqkuBY\r\nHOME FULL HOME PAGE DMCA CONTACT\r\n1337x 2007 - 2017","last_updated":"2017-12-18T12:04:30.075Z","parsed":{"xt":"urn:btih:d98ae703e46c20b1d5c3c438b315e1235fca84ed","dn":"Gomorra S03 E09 - 1080p x265 HEVC - ITA (ENG SUBS) [BRSHNKV]","tr":["udp://exodus.desync.com:6969","udp://open.demonii.com:1337","udp://tracker.coppersurfer.tk:6969","udp://tracker.leechers-paradise.org:6969","udp://zer0day.ch:1337"],"infoHash":"d98ae703e46c20b1d5c3c438b315e1235fca84ed","infoHashBuffer":{"type":"Buffer","data":[217,138,231,3,228,108,32,177,213,195,196,56,179,21,225,35,95,202,132,237]},"name":"Gomorra S03 E09 - 1080p x265 HEVC - ITA (ENG SUBS) [BRSHNKV]","announce":["udp://exodus.desync.com:6969","udp://open.demonii.com:1337","udp://tracker.coppersurfer.tk:6969","udp://tracker.leechers-paradise.org:6969","udp://zer0day.ch:1337"],"urlList":[]}}